<?xml version="1.0" encoding="UTF-8"?>
<svg version="1.1" xmlns="http://www.w3.org/2000/svg" width="512" height="507">
<path d="M0 0 C2.63246573 -0.00398073 5.26492956 -0.00954683 7.89738846 -0.01674271 C11.51489113 -0.02591113 15.13233645 -0.02857372 18.74984932 -0.02919197 C19.82891737 -0.03296034 20.90798542 -0.03672871 22.0197525 -0.04061127 C22.99391428 -0.03929514 23.96807606 -0.03797901 24.97175789 -0.036623 C25.82180114 -0.03752402 26.67184439 -0.03842505 27.54764652 -0.03935337 C29.47079659 0.08384514 29.47079659 0.08384514 30.47079659 1.08384514 C30.5701924 2.46901019 30.60159852 3.85918243 30.60360909 5.24790764 C30.60489815 6.12447014 30.60618721 7.00103264 30.60751534 7.90415764 C30.60364815 8.82970451 30.59978096 9.75525139 30.59579659 10.70884514 C30.59966377 11.58025139 30.60353096 12.45165764 30.60751534 13.34947014 C30.59607241 21.29086019 30.05971349 29.16767508 29.47079659 37.08384514 C28.91611702 37.08162453 28.36143745 37.07940392 27.78994942 37.07711601 C-7.85614404 36.94268799 -43.50257809 37.07462788 -79.14773369 37.34730339 C-83.69549072 37.3815563 -88.24320833 37.40874279 -92.79104424 37.43000603 C-98.2228446 37.45579156 -103.65435486 37.49601814 -109.08597565 37.54696846 C-111.10986464 37.56358449 -113.13380176 37.57518399 -115.15774918 37.58147621 C-117.95171883 37.59108517 -120.74493981 37.6190481 -123.5387249 37.65147209 C-124.35135166 37.65003669 -125.16397842 37.64860128 -126.00123024 37.64712238 C-131.11507557 37.73134492 -135.00429403 38.46098516 -139.52920341 41.08384514 C-144.46932254 46.2042773 -144.10734441 51.50950015 -144.07510185 58.22617912 C-144.09059137 59.90763102 -144.09059137 59.90763102 -144.10639381 61.62305164 C-144.13598135 65.35882393 -144.13729715 69.09405792 -144.13857841 72.82993889 C-144.15378655 75.47886049 -144.17054707 78.12772977 -144.18923759 80.77662468 C-144.23061329 87.15345448 -144.25099022 93.53017945 -144.26366425 99.90712428 C-144.27890133 107.24814626 -144.31387225 114.58903288 -144.34962416 121.92997873 C-144.41328587 135.15035803 -144.4554928 148.37072043 -144.4875598 161.59120977 C-144.51689832 173.49205562 -144.57588979 185.39257792 -144.64803886 197.2932415 C-144.69669483 205.39170372 -144.72890671 213.4902034 -144.75735283 221.58875847 C-144.77060091 225.27832486 -144.78974067 228.96778934 -144.81374931 232.65730095 C-144.84080555 236.92755141 -144.85312527 241.19758653 -144.85352898 245.4679203 C-144.85601185 246.99614885 -144.86353681 248.52437976 -144.87675285 250.05255318 C-145.00238312 260.9207178 -145.00238312 260.9207178 -141.52920341 271.08384514 C-136.78890535 275.01728396 -132.87339997 276.17337982 -126.8524456 276.2891674 C-125.93179314 276.30911263 -125.01114067 276.32905785 -124.06258965 276.34960747 C-123.07704094 276.36631996 -122.09149223 276.38303246 -121.07607841 276.40025139 C-119.553041 276.43142303 -119.553041 276.43142303 -117.99923515 276.46322441 C-114.75929269 276.52855111 -111.51926993 276.5875265 -108.27920341 276.64634514 C-106.08127848 276.6895464 -103.88336164 276.73316121 -101.68545341 276.77720451 C-96.30011781 276.88499258 -90.91472029 276.98419187 -85.52920341 277.08384514 C-85.52920341 288.63384514 -85.52920341 300.18384514 -85.52920341 312.08384514 C-102.0985982 312.20417157 -102.0985982 312.20417157 -109.21279716 312.23032951 C-114.04932458 312.24819765 -118.88568008 312.26923543 -123.72207451 312.3101635 C-127.62542023 312.34298536 -131.52858135 312.36074575 -135.43205452 312.36847687 C-136.91425923 312.37397974 -138.39645492 312.38472446 -139.87858009 312.40103531 C-152.01029599 312.52912107 -162.390184 311.79048083 -171.52920341 303.08384514 C-180.4990821 293.25969229 -181.68149637 282.71744166 -181.66964531 269.90104485 C-181.67261643 268.89010411 -181.67558755 267.87916337 -181.67864871 266.83758807 C-181.68730461 263.45775125 -181.68884132 260.07794997 -181.69033623 256.69810295 C-181.69496655 254.27159869 -181.6999915 251.84509515 -181.70538139 249.41859245 C-181.71848559 242.83170243 -181.72498345 236.24481976 -181.72939205 229.65791988 C-181.73216026 225.54090878 -181.73639861 221.42390001 -181.74089622 217.30689049 C-181.75308322 205.89569687 -181.76338422 194.48450511 -181.76677132 183.07330513 C-181.76699088 182.34385057 -181.76721045 181.61439601 -181.76743667 180.86283676 C-181.76765495 180.13169642 -181.76787322 179.40055607 -181.76809812 178.64725995 C-181.76854157 177.16583522 -181.76898814 175.68441049 -181.76943779 174.20298576 C-181.76965922 173.46815723 -181.76988065 172.73332869 -181.77010879 171.97623262 C-181.77405579 160.07273883 -181.79150937 148.16930629 -181.81479731 136.26583615 C-181.83854387 124.02865471 -181.85097464 111.79150396 -181.85213923 99.55429912 C-181.85305405 92.69000136 -181.85875751 85.82578347 -181.87695885 78.9615078 C-181.89402343 72.5034854 -181.89558783 66.04557393 -181.88681984 59.58753395 C-181.88605029 57.2216851 -181.89038134 54.85582805 -181.90027809 52.48999977 C-181.9130281 49.25134757 -181.9071039 46.01322909 -181.89669609 42.77458 C-181.9047525 41.84644092 -181.9128089 40.91830184 -181.92110944 39.96203732 C-181.83547643 28.50764642 -178.77446903 18.7933871 -170.90029716 10.33384514 C-164.54641248 4.4369684 -156.44257232 0.99327155 -147.77564812 0.92562675 C-146.34288536 0.91094353 -146.34288536 0.91094353 -144.8811779 0.89596367 C-143.31657578 0.88733047 -143.31657578 0.88733047 -141.72036552 0.87852287 C-140.61486351 0.86862328 -139.5093615 0.85872368 -138.37035942 0.84852409 C-134.68244398 0.81675958 -130.99451703 0.79201283 -127.30654716 0.76743889 C-124.69591303 0.74680286 -122.08528173 0.72580501 -119.47465324 0.70446587 C-113.95550429 0.660068 -108.43633766 0.61941317 -102.91714287 0.58115959 C-97.38195739 0.54277493 -91.84680808 0.50137491 -86.31167412 0.45615959 C-57.541527 0.22135823 -28.77115532 0.03827233 0 0 Z " fill="#4C8EFC" transform="translate(190.529203414917,103.9161548614502)"/>
<path d="M0 0 C0.93726425 -0.00570007 1.8745285 -0.01140015 2.8401947 -0.01727295 C4.83851996 -0.02675089 6.83686104 -0.03326794 8.83520508 -0.03710938 C11.83770026 -0.04666918 14.83946696 -0.07760169 17.84179688 -0.109375 C43.89118027 -0.25498628 65.84036898 5.3581092 85.3984375 23.59765625 C90.16889384 28.68868725 94.03131789 34.37475246 97.83984375 40.203125 C98.51402344 41.21761719 99.18820312 42.23210937 99.8828125 43.27734375 C104.45112216 50.57300246 106.98480973 57.81837124 108.83984375 66.203125 C109.07703125 67.2446875 109.31421875 68.28625 109.55859375 69.359375 C113.13818524 88.76452889 111.57651019 113.68313569 101.83984375 131.203125 C100.90398437 132.90275391 100.90398437 132.90275391 99.94921875 134.63671875 C96.78184255 140.30139249 93.48987981 145.83398714 89.83984375 151.203125 C91.33947228 154.40184005 93.13726449 157.24087679 95.15234375 160.140625 C95.72597656 160.97464844 96.29960937 161.80867187 96.890625 162.66796875 C98.79832639 165.26817479 98.79832639 165.26817479 101.20703125 167.5390625 C104.3905525 170.76037035 106.99526114 174.23314546 109.65234375 177.890625 C110.15443359 178.56673828 110.65652344 179.24285156 111.17382812 179.93945312 C114.83984375 184.95216837 114.83984375 184.95216837 114.83984375 187.203125 C108.45440597 187.45801308 102.07029093 187.6323312 95.6809082 187.75244141 C93.51081332 187.80253668 91.34105272 187.8706376 89.17211914 187.95751953 C70.09878949 188.70205823 70.09878949 188.70205823 65.35888672 184.93261719 C63.1273875 182.45317362 61.39084121 180.14839314 59.83984375 177.203125 C59.29457031 177.3899585 58.74929687 177.57679199 58.1875 177.76928711 C25.28886658 188.907724 -10.19330732 192.52028152 -42.47265625 177.390625 C-48.30153659 174.33516353 -53.25116189 170.56477504 -58.16015625 166.203125 C-59.11535156 165.37167969 -59.11535156 165.37167969 -60.08984375 164.5234375 C-72.97516604 152.5544048 -79.8050949 134.73281353 -80.734375 117.46484375 C-80.77549911 116.73104996 -80.81662323 115.99725616 -80.85899353 115.2412262 C-81.29532323 106.70880089 -81.27016043 98.18151878 -81.22265625 89.640625 C-81.21762036 88.03190247 -81.21306123 86.42317837 -81.20898438 84.81445312 C-81.19816906 80.94397039 -81.18102549 77.07356604 -81.16015625 73.203125 C-77.49716882 71.98212919 -74.22994927 72.18313547 -70.4296875 72.32421875 C-69.67926682 72.34782974 -68.92884613 72.37144073 -68.15568542 72.39576721 C-65.76114406 72.47228173 -63.36693612 72.55635826 -60.97265625 72.640625 C-59.34832355 72.69385794 -57.72397463 72.74659826 -56.09960938 72.79882812 C-52.11958091 72.92788027 -48.13983481 73.06371454 -44.16015625 73.203125 C-44.14557373 74.20053711 -44.13099121 75.19794922 -44.1159668 76.22558594 C-44.0572873 79.98324594 -43.98007032 83.74034943 -43.89770508 87.49755859 C-43.86477898 89.11302551 -43.83665045 90.72859856 -43.8137207 92.34423828 C-43.56792058 109.21554052 -41.42185806 124.36807194 -29.39453125 137.1640625 C-15.84863312 149.52587862 0.67742185 149.7823422 18.00537109 149.35693359 C23.88745057 149.03775099 29.54259371 147.85175002 34.83984375 145.203125 C33.19119226 140.25048106 30.35455872 136.28112338 27.4296875 132.015625 C26.34682677 130.41418314 25.26415004 128.81261685 24.18164062 127.2109375 C22.47712879 124.70078614 20.77005219 122.19244412 19.05932617 119.68652344 C17.40490634 117.2592481 15.76054375 114.82539914 14.1171875 112.390625 C13.60365219 111.64466064 13.09011688 110.89869629 12.5610199 110.13012695 C10.13896686 106.53138643 8.22002414 103.64529012 7.83984375 99.203125 C13.51368968 98.92958985 19.18364411 98.73089985 24.86254883 98.59887695 C26.79031252 98.54381644 28.71762213 98.46893543 30.64379883 98.37329102 C46.65547841 97.59859914 46.65547841 97.59859914 52.06347656 101.57104492 C54.34005965 104.34905672 56.11161021 107.06261067 57.83984375 110.203125 C59.41526525 112.33990942 61.04084514 114.24539122 62.83984375 116.203125 C63.82984375 116.203125 64.81984375 116.203125 65.83984375 116.203125 C66.15360896 114.66171534 66.4657884 113.11998285 66.77734375 111.578125 C66.95136719 110.71960938 67.12539062 109.86109375 67.3046875 108.9765625 C70.63935716 91.69469781 69.39924955 74.8693572 59.734375 59.8125 C51.43028941 48.37512026 38.83671781 40.57182676 24.83984375 38.203125 C17.35037237 37.12613644 9.83149269 36.89563501 2.27734375 36.640625 C1.07787109 36.59744141 -0.12160156 36.55425781 -1.35742188 36.50976562 C-4.29157418 36.40455698 -7.22579875 36.30241617 -10.16015625 36.203125 C-10.18480723 31.23690151 -10.20299274 26.27071334 -10.21508789 21.30444336 C-10.22012815 19.61368184 -10.2269603 17.92292471 -10.2355957 16.23217773 C-10.24767482 13.80711793 -10.25338748 11.38211556 -10.2578125 8.95703125 C-10.26297379 8.19661026 -10.26813507 7.43618927 -10.27345276 6.65272522 C-10.27364863 4.8357993 -10.22212902 3.01899373 -10.16015625 1.203125 C-7.99984179 -0.95718946 -3.00014484 0.01405618 0 0 Z " fill="#4A8DFC" transform="translate(157.16015625,170.796875)"/>
<path d="M0 0 C19.8 0 39.6 0 60 0 C60 17.49 60 34.98 60 53 C50.43 53 40.86 53 31 53 C30.67 63.23 30.34 73.46 30 84 C47.82 84 65.64 84 84 84 C84 95.22 84 106.44 84 118 C69.48 118 54.96 118 40 118 C40 127.24 40 136.48 40 146 C24.16 146 8.32 146 -8 146 C-8 154.58 -8 163.16 -8 172 C-1.73 172 4.54 172 11 172 C11 185.86 11 199.72 11 214 C0.77 214 -9.46 214 -20 214 C-20 206.74 -20 199.48 -20 192 C-29.24 192 -38.48 192 -48 192 C-48 166.92 -48 141.84 -48 116 C-38.1 116 -28.2 116 -18 116 C-18 105.77 -18 95.54 -18 85 C-27.9 85 -37.8 85 -48 85 C-48 66.85 -48 48.7 -48 30 C-32.16 30 -16.32 30 0 30 C0 20.1 0 10.2 0 0 Z " fill="#76E4BB" transform="translate(336,166)"/>
<path d="M0 0 C20.79 0 41.58 0 63 0 C63 21.45 63 42.9 63 65 C47.6859375 65.0309375 47.6859375 65.0309375 32.0625 65.0625 C28.83476807 65.071604 25.60703613 65.08070801 22.28149414 65.09008789 C19.7410486 65.09300676 17.2006026 65.09555539 14.66015625 65.09765625 C13.66380409 65.10157631 13.66380409 65.10157631 12.64732361 65.10557556 C10.69987143 65.11285688 8.75239742 65.1133384 6.80493164 65.11352539 C5.70572891 65.115746 4.60652618 65.11796661 3.47401428 65.12025452 C1 65 1 65 0 64 C-0.09405142 62.0056827 -0.11743249 60.00800457 -0.11352539 58.01147461 C-0.11344986 56.73022202 -0.11337433 55.44896942 -0.11329651 54.12889099 C-0.10818909 52.72004152 -0.10297309 51.31119244 -0.09765625 49.90234375 C-0.09579202 48.46887766 -0.09436814 47.03541093 -0.09336853 45.60194397 C-0.08954372 41.82240043 -0.07971377 38.0428951 -0.06866455 34.2633667 C-0.0566548 29.73212219 -0.05204801 25.20086493 -0.04621124 20.66960907 C-0.03650198 13.77971278 -0.0173452 6.88990038 0 0 Z " fill="#4C8DFA" transform="translate(253,104)"/>
<path d="M0 0 C0 14.19 0 28.38 0 43 C-6.579375 43.020625 -13.15875 43.04125 -19.9375 43.0625 C-22.01667725 43.071604 -24.09585449 43.08070801 -26.23803711 43.09008789 C-27.87613866 43.09300701 -29.51424094 43.09555558 -31.15234375 43.09765625 C-32.44017761 43.1053302 -32.44017761 43.1053302 -33.75402832 43.11315918 C-35.83636052 43.1134691 -37.9186036 43.06242176 -40 43 C-41 42 -41 42 -41.02172852 38.12280273 C-40.97937342 36.39292983 -40.93134727 34.66319028 -40.87890625 32.93359375 C-40.85529526 32.02497086 -40.83168427 31.11634796 -40.80735779 30.18019104 C-40.73052149 27.26580954 -40.64658363 24.35168056 -40.5625 21.4375 C-40.50929928 19.46680941 -40.45655877 17.49610634 -40.40429688 15.52539062 C-40.27487948 10.68343255 -40.13909094 5.84168946 -40 1 C-34.78557719 0.8570662 -29.57114024 0.71466343 -24.35668945 0.57275391 C-22.58259692 0.52439759 -20.80850834 0.47589588 -19.03442383 0.42724609 C-16.48519906 0.35736525 -13.93596055 0.28800639 -11.38671875 0.21875 C-10.59287277 0.19687622 -9.79902679 0.17500244 -8.98112488 0.15246582 C-5.98634439 0.07150104 -2.99603534 0 0 0 Z " fill="#4D8FFD" transform="translate(117,170)"/>
<path d="M0 0 C12.87 0 25.74 0 39 0 C39 11.55 39 23.1 39 35 C26.13 35 13.26 35 0 35 C0 23.45 0 11.9 0 0 Z " fill="#4A8EFD" transform="translate(137,381)"/>
<path d="M0 0 C1.44937858 0.01152381 2.89876039 0.0226456 4.34814453 0.03344727 C5.59450684 0.04303467 6.84086914 0.05262207 8.125 0.0625 C8.292247 4.886116 8.45284308 9.70988911 8.60717773 14.53393555 C8.66066959 16.17624934 8.71600431 17.81850416 8.77319336 19.46069336 C8.85490479 21.81611406 8.93006639 24.17166482 9.00390625 26.52734375 C9.03094131 27.26589096 9.05797638 28.00443817 9.08583069 28.7653656 C9.1379438 30.53035616 9.1368612 32.2967801 9.125 34.0625 C8.125 35.0625 8.125 35.0625 5.07397461 35.17602539 C3.72508731 35.17577443 2.37619355 35.17021815 1.02734375 35.16015625 C-0.26953369 35.15765869 -1.56641113 35.15516113 -2.90258789 35.15258789 C-4.56410889 35.14348389 -6.22562988 35.13437988 -7.9375 35.125 C-13.196875 35.104375 -18.45625 35.08375 -23.875 35.0625 C-23.875 23.8425 -23.875 12.6225 -23.875 1.0625 C-7.77932099 -0.08719136 -7.77932099 -0.08719136 0 0 Z " fill="#76E4BB" transform="translate(231.875,379.9375)"/>
<path d="M0 0 C9.9 0 19.8 0 30 0 C30.020625 4.929375 30.04125 9.85875 30.0625 14.9375 C30.071604 16.49460693 30.08070801 18.05171387 30.09008789 19.65600586 C30.09258545 20.87167236 30.09508301 22.08733887 30.09765625 23.33984375 C30.10551147 25.21724243 30.10551147 25.21724243 30.11352539 27.13256836 C30 30 30 30 29 31 C26.85441173 31.08775605 24.70595579 31.10695219 22.55859375 31.09765625 C21.38353271 31.09515869 20.20847168 31.09266113 18.99780273 31.09008789 C17.49290283 31.08098389 15.98800293 31.07187988 14.4375 31.0625 C9.673125 31.041875 4.90875 31.02125 0 31 C0 20.77 0 10.54 0 0 Z " fill="#75E5BA" transform="translate(348,106)"/>
<path d="M0 0 C4.599375 -0.020625 9.19875 -0.04125 13.9375 -0.0625 C15.39019287 -0.071604 16.84288574 -0.08070801 18.33959961 -0.09008789 C19.47405518 -0.09258545 20.60851074 -0.09508301 21.77734375 -0.09765625 C23.52905884 -0.10551147 23.52905884 -0.10551147 25.31616211 -0.11352539 C28 0 28 0 29 1 C29.09983058 2.98757028 29.13080753 4.9786752 29.1328125 6.96875 C29.13474609 8.78439453 29.13474609 8.78439453 29.13671875 10.63671875 C29.13285156 11.91160156 29.12898438 13.18648437 29.125 14.5 C29.13080078 16.41232422 29.13080078 16.41232422 29.13671875 18.36328125 C29.13542969 19.57371094 29.13414062 20.78414062 29.1328125 22.03125 C29.13168457 23.15080078 29.13055664 24.27035156 29.12939453 25.42382812 C29 28 29 28 28 29 C25.92737924 29.08767112 23.85179706 29.10695873 21.77734375 29.09765625 C20.64288818 29.09515869 19.50843262 29.09266113 18.33959961 29.09008789 C16.1605603 29.07643188 16.1605603 29.07643188 13.9375 29.0625 C7.0384375 29.0315625 7.0384375 29.0315625 0 29 C0 19.43 0 9.86 0 0 Z " fill="#7AE4BC" transform="translate(428,190)"/>
<path d="M0 0 C7.92 0 15.84 0 24 0 C24 10.89 24 21.78 24 33 C21.05868109 33.98043964 19.17498335 34.11621202 16.11328125 34.09765625 C15.26805908 34.09515869 14.42283691 34.09266113 13.55200195 34.09008789 C12.48296631 34.08098389 11.41393066 34.07187988 10.3125 34.0625 C5.2078125 34.0315625 5.2078125 34.0315625 0 34 C0 22.78 0 11.56 0 0 Z " fill="#76E4BA" transform="translate(273,381)"/>
<path d="M0 0 C9.24 0 18.48 0 28 0 C28 9.24 28 18.48 28 28 C18.76 28 9.52 28 0 28 C0 18.76 0 9.52 0 0 Z " fill="#75E3B9" transform="translate(411,135)"/>
<path d="M0 0 C8.58 0 17.16 0 26 0 C26.0309375 5.9090625 26.0309375 5.9090625 26.0625 11.9375 C26.071604 13.18136475 26.08070801 14.42522949 26.09008789 15.70678711 C26.09258545 16.6788208 26.09508301 17.65085449 26.09765625 18.65234375 C26.10551147 20.15269165 26.10551147 20.15269165 26.11352539 21.68334961 C26 24 26 24 25 25 C23.23140807 25.09946453 21.45888549 25.13080217 19.6875 25.1328125 C18.61242187 25.13410156 17.53734375 25.13539063 16.4296875 25.13671875 C15.29789062 25.13285156 14.16609375 25.12898438 13 25.125 C11.86820312 25.12886719 10.73640625 25.13273437 9.5703125 25.13671875 C8.49523437 25.13542969 7.42015625 25.13414062 6.3125 25.1328125 C5.31863281 25.13168457 4.32476562 25.13055664 3.30078125 25.12939453 C1 25 1 25 0 24 C-0.08726223 22.21928754 -0.10699041 20.4351686 -0.09765625 18.65234375 C-0.09515869 17.68031006 -0.09266113 16.70827637 -0.09008789 15.70678711 C-0.08098389 14.46292236 -0.07187988 13.21905762 -0.0625 11.9375 C-0.041875 7.998125 -0.02125 4.05875 0 0 Z " fill="#76E4BB" transform="translate(378,339)"/>
<path d="M0 0 C8.25 0 16.5 0 25 0 C25 8.25 25 16.5 25 25 C16.75 25 8.5 25 0 25 C0 16.75 0 8.5 0 0 Z " fill="#76E4BA" transform="translate(426,302)"/>
<path d="M0 0 C7.92 0 15.84 0 24 0 C24 8.58 24 17.16 24 26 C16.08 26 8.16 26 0 26 C0 17.42 0 8.84 0 0 Z " fill="#77E4BB" transform="translate(456,247)"/>
<path d="M0 0 C7.59 0 15.18 0 23 0 C23 8.25 23 16.5 23 25 C15.41 25 7.82 25 0 25 C0 16.75 0 8.5 0 0 Z " fill="#6CE2B6" transform="translate(486,190)"/>
<path d="M0 0 C19.8 0 39.6 0 60 0 C60 17.16 60 34.32 60 52 C59.34 51.67 58.68 51.34 58 51 C58 34.83 58 18.66 58 2 C39.52 2 21.04 2 2 2 C2.03959728 11.82803025 2.03959728 11.82803025 2.09008789 21.65600586 C2.09258545 22.87167236 2.09508301 24.08733887 2.09765625 25.33984375 C2.10289307 26.59144287 2.10812988 27.84304199 2.11352539 29.13256836 C2 32 2 32 1 33 C-0.50418739 33.09311889 -2.01271356 33.11746028 -3.51977539 33.11352539 C-4.49418579 33.11340454 -5.46859619 33.11328369 -6.47253418 33.11315918 C-7.50382446 33.10804321 -8.53511475 33.10292725 -9.59765625 33.09765625 C-11.01153625 33.09614563 -11.01153625 33.09614563 -12.45397949 33.09460449 C-15.99016529 33.08935477 -19.52633381 33.07539364 -23.0625 33.0625 C-30.961875 33.041875 -38.86125 33.02125 -47 33 C-47 49.83 -47 66.66 -47 84 C-37.76 84 -28.52 84 -19 84 C-19 84.33 -19 84.66 -19 85 C-28.57 85 -38.14 85 -48 85 C-48 66.85 -48 48.7 -48 30 C-32.16 30 -16.32 30 0 30 C0 20.1 0 10.2 0 0 Z " fill="#4DDDA7" transform="translate(336,166)"/>
<path d="M0 0 C0.33 0 0.66 0 1 0 C1 24.42 1 48.84 1 74 C10.24 74 19.48 74 29 74 C30 75 30 75 30.11352539 77.04125977 C30.10828857 77.91580811 30.10305176 78.79035645 30.09765625 79.69140625 C30.09515869 80.54162354 30.09266113 81.39184082 30.09008789 82.26782227 C30.08098389 83.35506592 30.07187988 84.44230957 30.0625 85.5625 C30.041875 89.006875 30.02125 92.45125 30 96 C38.58 96 47.16 96 56 96 C56 83.79 56 71.58 56 59 C50.39 59 44.78 59 39 59 C39 58.34 39 57.68 39 57 C48.9 56.505 48.9 56.505 59 56 C59 69.86 59 83.72 59 98 C48.77 98 38.54 98 28 98 C28 90.74 28 83.48 28 76 C18.76 76 9.52 76 0 76 C0 50.92 0 25.84 0 0 Z " fill="#48DCA5" transform="translate(288,282)"/>
<path d="M0 0 C9.24 0 18.48 0 28 0 C28 9.24 28 18.48 28 28 C18.76 28 9.52 28 0 28 C0 18.76 0 9.52 0 0 Z M2 3 C2 10.59 2 18.18 2 26 C9.92 26 17.84 26 26 26 C26 18.41 26 10.82 26 3 C18.08 3 10.16 3 2 3 Z " fill="#5CDEAD" transform="translate(411,135)"/>
<path d="M0 0 C0.66 0 1.32 0 2 0 C2 10.23 2 20.46 2 31 C19.82 31 37.64 31 56 31 C56 41.56 56 52.12 56 63 C55.67 63 55.34 63 55 63 C55 53.43 55 43.86 55 34 C36.85 33.67 18.7 33.34 0 33 C0 22.11 0 11.22 0 0 Z " fill="#3DDDA2" transform="translate(364,219)"/>
<path d="M0 0 C8.25 0 16.5 0 25 0 C25 8.25 25 16.5 25 25 C16.75 25 8.5 25 0 25 C0 16.75 0 8.5 0 0 Z M2 2 C2 8.6 2 15.2 2 22 C8.93 22 15.86 22 23 22 C23 15.4 23 8.8 23 2 C16.07 2 9.14 2 2 2 Z " fill="#57DDAB" transform="translate(426,302)"/>
<path d="M0 0 C9.9 0 19.8 0 30 0 C30 9.9 30 19.8 30 30 C29.34 30 28.68 30 28 30 C28 20.76 28 11.52 28 2 C19.42 2 10.84 2 2 2 C2 10.91 2 19.82 2 29 C1.34 29 0.68 29 0 29 C0 19.43 0 9.86 0 0 Z " fill="#43DDA3" transform="translate(348,106)"/>
<path d="M0 0 C7.92 0 15.84 0 24 0 C24 10.89 24 21.78 24 33 C21.07330309 33.97556564 19.55938679 34.0606341 16.55078125 33.87890625 C15.70322266 33.83056641 14.85566406 33.78222656 13.98242188 33.73242188 C12.66081055 33.64831055 12.66081055 33.64831055 11.3125 33.5625 C10.41982422 33.51029297 9.52714844 33.45808594 8.60742188 33.40429688 C6.4045844 33.2747182 4.20221127 33.13975754 2 33 C2 32.67 2 32.34 2 32 C8.27 32 14.54 32 21 32 C21 21.77 21 11.54 21 1 C14.73 1 8.46 1 2 1 C2 9.91 2 18.82 2 28 C1.67 28 1.34 28 1 28 C0.67 18.76 0.34 9.52 0 0 Z " fill="#5BDCAB" transform="translate(273,381)"/>
<path d="M0 0 C6.6752034 -0.02526945 13.35039457 -0.04283268 20.02563477 -0.05493164 C22.29842591 -0.05997325 24.5712138 -0.06680637 26.84399414 -0.07543945 C30.10303551 -0.08751261 33.36203417 -0.09322987 36.62109375 -0.09765625 C37.64400009 -0.10281754 38.66690643 -0.10797882 39.72080994 -0.11329651 C40.66170975 -0.11337204 41.60260956 -0.11344757 42.57202148 -0.11352539 C43.40475082 -0.115746 44.23748016 -0.11796661 45.09544373 -0.12025452 C47 0 47 0 48 1 C48.08685603 2.56172745 48.10702219 4.12729344 48.09765625 5.69140625 C48.09443359 6.63564453 48.09121094 7.57988281 48.08789062 8.55273438 C48.07532227 10.04256836 48.07532227 10.04256836 48.0625 11.5625 C48.05798828 12.55958984 48.05347656 13.55667969 48.04882812 14.58398438 C48.03700007 17.05604849 48.02051849 19.52799518 48 22 C47.34 21.67 46.68 21.34 46 21 C46 14.73 46 8.46 46 2 C31.15 2 16.3 2 1 2 C0.67 1.34 0.34 0.68 0 0 Z " fill="#96AED6" transform="translate(173,104)"/>
<path d="M0 0 C5.61 0 11.22 0 17 0 C17 0.66 17 1.32 17 2 C12.05 2 7.1 2 2 2 C2.33 12.23 2.66 22.46 3 33 C2.01 33 1.02 33 0 33 C0 22.11 0 11.22 0 0 Z " fill="#3CD99F" transform="translate(208,381)"/>
<path d="M0 0 C7.59 0 15.18 0 23 0 C23 0.66 23 1.32 23 2 C16.07 2 9.14 2 2 2 C2 9.59 2 17.18 2 25 C1.34 25 0.68 25 0 25 C0 16.75 0 8.5 0 0 Z " fill="#98E8C9" transform="translate(486,190)"/>
<path d="M0 0 C0.33 0.66 0.66 1.32 1 2 C1.66 2 2.32 2 3 2 C3 11.24 3 20.48 3 30 C2.34 30 1.68 30 1 30 C-0.40912096 27.18175808 -0.11183553 24.82748718 -0.09765625 21.6796875 C-0.09443359 20.42285156 -0.09121094 19.16601562 -0.08789062 17.87109375 C-0.07951172 16.55238281 -0.07113281 15.23367188 -0.0625 13.875 C-0.05748489 12.53515789 -0.05292201 11.195314 -0.04882812 9.85546875 C-0.03701086 6.57026794 -0.02053617 3.28515603 0 0 Z " fill="#8CE7C3" transform="translate(373,282)"/>
<path d="M0 0 C1.16660156 0.00322266 2.33320313 0.00644531 3.53515625 0.00976562 C4.75847656 0.01814453 5.98179687 0.02652344 7.2421875 0.03515625 C8.47324219 0.03966797 9.70429688 0.04417969 10.97265625 0.04882812 C14.02088142 0.06064295 17.06901064 0.07711597 20.1171875 0.09765625 C20.4471875 1.08765625 20.7771875 2.07765625 21.1171875 3.09765625 C11.5471875 3.09765625 1.9771875 3.09765625 -7.8828125 3.09765625 C-7.8828125 2.43765625 -7.8828125 1.77765625 -7.8828125 1.09765625 C-5.16879956 -0.25935022 -3.03434934 -0.01472985 0 0 Z " fill="#8BE7C3" transform="translate(355.8828125,133.90234375)"/>
<path d="M0 0 C0.66 0 1.32 0 2 0 C2.042721 1.66611905 2.04063832 3.33382885 2 5 C1 6 1 6 -2.05102539 6.11352539 C-3.39991271 6.11336634 -4.74880614 6.10767612 -6.09765625 6.09765625 C-7.16094398 6.09553383 -7.16094398 6.09553383 -8.24571228 6.09336853 C-10.51801712 6.08775443 -12.79022475 6.07519963 -15.0625 6.0625 C-16.59960796 6.05748681 -18.13671745 6.05292359 -19.67382812 6.04882812 C-23.44925642 6.03778042 -27.22461171 6.02050641 -31 6 C-31 5.67 -31 5.34 -31 5 C-26.5837353 4.49640653 -22.16692737 3.99774511 -17.75 3.5 C-16.49574219 3.35691406 -15.24148437 3.21382813 -13.94921875 3.06640625 C-12.14130859 2.86337891 -12.14130859 2.86337891 -10.296875 2.65625 C-9.18666992 2.53056641 -8.07646484 2.40488281 -6.93261719 2.27539062 C-4 2 -4 2 0 2 C0 1.34 0 0.68 0 0 Z " fill="#8AE6C3" transform="translate(239,409)"/>
<path d="M0 0 C0.99 0 1.98 0 3 0 C3 7.92 3 15.84 3 24 C2.01 24 1.02 24 0 24 C0 16.08 0 8.16 0 0 Z " fill="#60E0B0" transform="translate(428,193)"/>
<path d="M0 0 C2.97 0 5.94 0 9 0 C9 0.66 9 1.32 9 2 C21.87 2 34.74 2 48 2 C48 2.33 48 2.66 48 3 C32.16 3 16.32 3 0 3 C0 2.01 0 1.02 0 0 Z " fill="#5BDEAD" transform="translate(289,196)"/>
<path d="M0 0 C0.99 0 1.98 0 3 0 C3 1.98 3 3.96 3 6 C8.28 6 13.56 6 19 6 C16.17169743 8.82830257 14.00502062 8.40529297 10.0625 8.625 C8.81597656 8.69976562 7.56945312 8.77453125 6.28515625 8.8515625 C4.19165595 8.94615585 2.09563628 9 0 9 C0 6.03 0 3.06 0 0 Z " fill="#54DFAB" transform="translate(456,264)"/>
<path d="M0 0 C0 9.57 0 19.14 0 29 C-0.33 29 -0.66 29 -1 29 C-1 20.42 -1 11.84 -1 3 C-4.63 3 -8.26 3 -12 3 C-12 2.34 -12 1.68 -12 1 C-10.37512529 0.83211627 -8.75009558 0.66573213 -7.125 0.5 C-6.22007812 0.4071875 -5.31515625 0.314375 -4.3828125 0.21875 C-2 0 -2 0 0 0 Z " fill="#22D393" transform="translate(240,380)"/>
<path d="M0 0 C2.52128356 2.52128356 2.29353069 3.51239013 2.4140625 7.0078125 C2.45273438 7.99394531 2.49140625 8.98007812 2.53125 9.99609375 C2.5621875 11.02863281 2.593125 12.06117188 2.625 13.125 C2.66367188 14.16527344 2.70234375 15.20554687 2.7421875 16.27734375 C2.83664766 18.85138311 2.92221214 21.42541155 3 24 C2.01 24 1.02 24 0 24 C0 16.08 0 8.16 0 0 Z " fill="#4ADAA6" transform="translate(208,390)"/>
<path d="M0 0 C0.33 0 0.66 0 1 0 C1.33 10.23 1.66 20.46 2 31 C0.68 30.67 -0.64 30.34 -2 30 C-2 29.34 -2 28.68 -2 28 C-1.34 28 -0.68 28 0 28 C0 18.76 0 9.52 0 0 Z " fill="#5EDFAF" transform="translate(418,253)"/>
<path d="M0 0 C2.64 0 5.28 0 8 0 C8.08333357 4.8333472 7.95261487 9.23692563 7 14 C6.67 14 6.34 14 6 14 C5.67 10.04 5.34 6.08 5 2 C3.35 1.67 1.7 1.34 0 1 C0 0.67 0 0.34 0 0 Z " fill="#65E2B2" transform="translate(396,339)"/>
<path d="M0 0 C-0.33 0.99 -0.66 1.98 -1 3 C-4.63 3 -8.26 3 -12 3 C-12 2.34 -12 1.68 -12 1 C-10.37512529 0.83211627 -8.75009558 0.66573213 -7.125 0.5 C-6.22007812 0.4071875 -5.31515625 0.314375 -4.3828125 0.21875 C-2 0 -2 0 0 0 Z " fill="#45DCA3" transform="translate(240,380)"/>
</svg>
